<svg xmlns="http://www.w3.org/2000/svg" width="500" height="500" viewBox="0 0 500 500">
  <defs>
    <style>
      .cls-1 {
        fill-rule: evenodd;
      }
    </style>
  </defs>
  <path class="cls-1" d="M251,12.093l15.1,177.088,50.451-97.445L283.323,196.32l135.9-114.55-114.551,135.9,104.577-33.231L311.815,234.9,488.912,250,311.815,265.1l97.438,50.462L304.676,282.325,419.227,418.23l-135.9-114.55,33.23,104.584L266.1,310.819,251,487.907l-15.1-177.1-50.453,97.446L218.67,303.68,82.766,418.23,197.315,282.325,92.74,315.558,190.185,265.1,13.088,250,190.179,234.9,92.74,184.442l104.575,33.231L82.766,81.77l135.9,114.55L185.447,91.736,235.9,189.19,251,12.093h0Z"/>
</svg> 