<?xml version="1.0" encoding="UTF-8" standalone="no"?>
<svg
   xmlns:dc="http://purl.org/dc/elements/1.1/"
   xmlns:cc="http://creativecommons.org/ns#"
   xmlns:rdf="http://www.w3.org/1999/02/22-rdf-syntax-ns#"
   xmlns:svg="http://www.w3.org/2000/svg"
   xmlns="http://www.w3.org/2000/svg"
   style="fill:none"
   id="svg16"
   version="1.1"
   width="200"
   viewBox="204.925 153.577 40.61 40.61"
   height="200">
  <metadata
     id="metadata22">
    <rdf:RDF>
      <cc:Work
         rdf:about="">
        <dc:format>image/svg+xml</dc:format>
        <dc:type
           rdf:resource="http://purl.org/dc/dcmitype/StillImage" />
        <dc:title></dc:title>
      </cc:Work>
    </rdf:RDF>
  </metadata>
  <defs
     id="defs20" />
  <path
     style="fill:#9a4993;stroke-width:0.05054429"
     id="path2"
     d="m 245.53495,165.50353 c 0,-0.67855 -0.16263,-1.29037 -0.50043,-1.8021 -0.32526,-0.51169 -0.8132,-0.93439 -1.46372,-1.26811 -5.40467,-2.7699 -10.82182,-5.53976 -16.22648,-8.30966 -1.46378,-0.74532 -2.86499,-0.72306 -4.31622,0.0334 -2.15186,1.12355 -12.93616,6.61879 -16.1389,8.27629 -1.32617,0.67854 -1.9642,1.72422 -1.9642,3.08136 v 16.7305 c 0,0.66744 0.16263,1.257 0.4754,1.76874 0.32531,0.52283 0.82574,0.96779 1.4888,1.31262 3.21528,1.6575 13.98704,7.14163 16.1389,8.27629 1.45123,0.75628 2.86493,0.78964 4.31622,0.0334 5.40466,-2.781 10.82181,-5.53975 16.22648,-8.30965 0.67555,-0.34483 1.16349,-0.77868 1.48875,-1.31262 0.31277,-0.51174 0.4754,-1.1013 0.4754,-1.76874 z" />
  <path
     style="fill:#6a1577;stroke-width:0.05054429"
     id="path4"
     d="m 225.28004,173.81318 -19.90467,10.18958 c 0.32531,0.52284 0.82574,0.9678 1.4888,1.31268 3.21528,1.65745 13.98703,7.14158 16.1389,8.27624 1.45122,0.75647 2.86498,0.78983 4.31621,0.0334 5.40467,-2.781 10.82182,-5.53975 16.22649,-8.3096 0.67555,-0.34488 1.16349,-0.77869 1.48875,-1.31268 z" />
  <path
     style="fill:#6a1577;stroke-width:0.05054429"
     id="path6"
     d="m 219.38743,176.82777 c 1.16355,1.8021 3.34039,3.01464 5.83005,3.01464 2.51465,0 4.70403,-1.22364 5.85503,-3.048 l -5.79247,-2.98123 z" />
  <path
     style="fill:#813084;stroke-width:0.05054429"
     id="path8"
     d="m 245.535,165.50353 c 0,-0.67855 -0.16268,-1.29037 -0.50043,-1.8021 l -19.75453,10.11175 19.77951,10.18963 c 0.31277,-0.51173 0.47545,-1.1013 0.47545,-1.76874 z" />
  <g
     transform="matrix(0.05360228,0,0,0.04766076,193.94055,146.05875)"
     style="fill:#ffffff"
     id="g14">
    <path
       id="path10"
       d="m 692.731,644.884 c -21.472,38.044 -62.317,63.952 -109.231,63.952 -46.68,0 -87.291,-25.441 -108.764,-63.252 -10.503,-18.438 -16.572,-39.444 -16.572,-62.084 0,-69.32 56.016,-125.336 125.336,-125.336 46.213,0 86.592,25.207 108.298,62.551 L 801.262,457.697 C 757.617,382.543 676.393,331.895 583.267,331.895 c -139.107,0 -251.605,112.732 -251.605,251.605 0,45.513 12.136,88.459 33.376,125.336 43.412,75.388 125.102,126.269 218.462,126.269 93.594,0 175.284,-51.114 218.696,-126.969 z M 831.137,523.983 h -24.974 v 120.668 h 24.974 z m 55.316,0 h -24.974 v 120.668 h 24.974 z" />
    <path
       id="path12"
       d="M 906.759,544.289 H 786.091 v 24.974 h 120.668 z m 0,55.082 H 786.091 v 24.974 h 120.668 z" />
  </g>
</svg>
