<?xml version="1.0" encoding="utf-8"?>
<!-- Svg Vector Icons : http://www.onlinewebfonts.com/icon -->
<!DOCTYPE svg PUBLIC "-//W3C//DTD SVG 1.1//EN" "http://www.w3.org/Graphics/SVG/1.1/DTD/svg11.dtd">
<svg version="1.1" xmlns="http://www.w3.org/2000/svg" xmlns:xlink="http://www.w3.org/1999/xlink" x="0px" y="0px" viewBox="0 0 1000 1000" enable-background="new 0 0 1000 1000" xml:space="preserve">
<metadata> Svg Vector Icons : http://www.onlinewebfonts.com/icon </metadata>
<g><path d="M494.2,4.6c-40.4,0.2-79,3.6-113,9.6C281.2,31.9,263,68.9,263,137.1v90.1h236.4v30H263h-88.7c-68.7,0-128.8,41.3-147.7,119.8c-21.7,90-22.7,146.2,0,240.2c16.8,70,56.9,119.8,125.6,119.8h81.3v-108c0-78,67.5-146.8,147.7-146.8h236.1c65.7,0,118.2-54.1,118.2-120.1V137.1c0-64.1-54-112.2-118.2-122.9C576.7,7.5,534.6,4.4,494.2,4.6z M366.3,77.1c24.4,0,44.4,20.3,44.4,45.2c0,24.8-19.9,44.9-44.4,44.9c-24.5,0-44.4-20.1-44.4-44.9C322,97.3,341.8,77.1,366.3,77.1z M765,257.2v105c0,81.4-69,149.9-147.7,149.9H381.2c-64.7,0-118.2,55.3-118.2,120.1v225.1c0,64.1,55.7,101.7,118.2,120.1c74.8,22,146.6,26,236.1,0c59.5-17.2,118.2-51.9,118.2-120.1v-90.1H499.4v-30h236.1h118.2c68.7,0,94.3-47.9,118.2-119.8c24.7-74,23.6-145.3,0-240.2c-17-68.4-49.4-119.8-118.2-119.8L765,257.2L765,257.2z M632.2,827.2c24.5,0,44.4,20.1,44.4,44.9c0,24.9-19.9,45.2-44.4,45.2c-24.4,0-44.4-20.3-44.4-45.2C587.8,847.3,607.8,827.2,632.2,827.2z"/></g>
</svg>