<?xml version="1.0" encoding="UTF-8"?>
<!-- Created with Inkscape (http://www.inkscape.org/) -->
<svg version="1.1" viewBox="0 0 300 300" xmlns="http://www.w3.org/2000/svg">
 <g transform="translate(-231.54,-375.82)">
  <ellipse cx="381.54" cy="525.82" rx="143.46" ry="143.45" color="#000000" />
  <g transform="matrix(3.8189 0 0 3.8189 -1398.1 -1597.5)" fill="#fff">
   <g transform="translate(-560.19,271.89)" fill="#fff">
    <path d="m1005.1 267.46c-1.0293-7e-5 -1.8731 0.84123-1.873 1.8711v29.52c-4e-4 1.0301 0.8424 1.8751 1.873 1.875h42.172c1.0307 9e-5 1.8736-0.84482 1.8731-1.875v-29.52c0-1.0298-0.8438-1.8712-1.8731-1.8711h-42.172zm4.9922 4.4844h32.176l-16.086 14.055-16.09-14.055zm35.307 2.2383v20.764l-11.764-10.486 11.764-10.277zm-38.426 0.0117 11.812 10.322-11.812 10.531v-20.854zm23.82 12.748 11.191 9.9785h-31.482l11.127-9.9199 3.3164 2.8984c0.7033 0.61399 1.7615 0.61395 2.4649 0l3.3828-2.957z" color="#000000" color-rendering="auto" fill="#fff" image-rendering="auto" shape-rendering="auto" style="block-progression:tb;isolation:auto;text-decoration-color:#000000;text-decoration-line:none;text-decoration-style:solid;text-indent:0;text-transform:none"/>
   </g>
  </g>
 </g>
</svg>
